<!DOCTYPE svg PUBLIC "-//W3C//DTD SVG 1.1//EN" "http://www.w3.org/Graphics/SVG/1.1/DTD/svg11.dtd">
<!-- Uploaded to: SVG Repo, www.svgrepo.com, Transformed by: SVG Repo Mixer Tools -->
<svg fill="#419bc8" height="800px" width="800px" version="1.1" id="Layer_1" xmlns="http://www.w3.org/2000/svg" xmlns:xlink="http://www.w3.org/1999/xlink" viewBox="0 0 512.006 512.006" xml:space="preserve" stroke="#419bc8">
<g id="SVGRepo_bgCarrier" stroke-width="0"/>
<g id="SVGRepo_tracerCarrier" stroke-linecap="round" stroke-linejoin="round"/>
<g id="SVGRepo_iconCarrier"> <g> <g> <path d="M256.003,0C161.902,0,85.336,76.565,85.336,170.667c0,104,146.731,322.667,152.981,331.925 c3.968,5.888,10.88,9.579,17.685,9.408c7.04,0,13.653-3.477,17.621-9.301c6.251-9.152,153.045-225.344,153.045-332.032 C426.67,76.565,350.104,0,256.003,0z M277.336,234.667c0,11.776-9.536,21.333-21.333,21.333s-21.333-9.557-21.333-21.333v-64 c0-11.776,9.536-21.333,21.333-21.333s21.333,9.557,21.333,21.333V234.667z M256.003,128c-11.776,0-21.333-9.557-21.333-21.333 s9.557-21.333,21.333-21.333s21.333,9.557,21.333,21.333S267.779,128,256.003,128z"/> </g> </g> </g>
</svg>